<?xml version="1.0" encoding="UTF-8" standalone="no"?>
<svg
   width="32"
   height="32"
   fill="currentColor"
   class="bi bi-discord"
   viewBox="0 0 32 32"
   version="1.1"
   id="svg1"
   sodipodi:docname="discord.svg"
   xml:space="preserve"
   inkscape:version="1.4.2 (f4327f4, 2025-05-13)"
   xmlns:inkscape="http://www.inkscape.org/namespaces/inkscape"
   xmlns:sodipodi="http://sodipodi.sourceforge.net/DTD/sodipodi-0.dtd"
   xmlns="http://www.w3.org/2000/svg"
   xmlns:svg="http://www.w3.org/2000/svg"><defs
     id="defs1" /><sodipodi:namedview
     id="namedview1"
     pagecolor="#606060"
     bordercolor="#000000"
     borderopacity="0.25"
     inkscape:showpageshadow="2"
     inkscape:pageopacity="0.0"
     inkscape:pagecheckerboard="0"
     inkscape:deskcolor="#d1d1d1"
     inkscape:zoom="18.796875"
     inkscape:cx="1.6758105"
     inkscape:cy="18.167914"
     inkscape:window-width="3148"
     inkscape:window-height="1401"
     inkscape:window-x="33"
     inkscape:window-y="19"
     inkscape:window-maximized="0"
     inkscape:current-layer="svg1" /><circle
     style="fill:#5361e6;fill-opacity:1;stroke:#00d1b2;stroke-width:0;stroke-linecap:round;stroke-linejoin:round;stroke-dasharray:none"
     id="path2"
     cx="16.0931"
     cy="15.986699"
     r="15.8803" /><path
     d="M 23.859711,8.8769046 C 22.416138,8.2139457 20.892665,7.7410469 19.327425,7.470045 c -0.02906,-0.0049 -0.05804,0.00904 -0.07236,0.034789 -0.196209,0.3478882 -0.413291,0.8029259 -0.56497,1.1591632 -1.687123,-0.2558213 -3.403175,-0.2558213 -5.090299,0 -0.168483,-0.3971711 -0.359913,-0.7842117 -0.573319,-1.1591637 -0.01432,-0.025748 -0.04331,-0.039683 -0.07236,-0.034788 -1.565493,0.2699612 -3.0892441,0.743089 -4.5322841,1.4068596 -0.01241,0.0046 -0.022771,0.013489 -0.029223,0.025048 -2.8860798,4.3124209 -3.6778733,8.5190849 -3.2896302,12.6728689 0.00278,0.02041 0.012525,0.03757 0.029223,0.05149 1.6809521,1.244352 3.5606571,2.194791 5.5592533,2.810934 0.02896,0.0091 0.06051,-0.0016 0.07793,-0.02643 0.429525,-0.584452 0.808955,-1.20091 1.138289,-1.849374 0.01405,-0.02743 0.0084,-0.06083 -0.01391,-0.0821 l -0.02505,-0.01532 c -0.599258,-0.231051 -1.179856,-0.50786 -1.736655,-0.827973 -0.03228,-0.01829 -0.04453,-0.05871 -0.02783,-0.09184 l 0.02087,-0.02643 c 0.117818,-0.08813 0.232853,-0.178583 0.345105,-0.271354 0.02003,-0.01611 0.04733,-0.01986 0.07097,-0.0097 3.644477,1.664297 7.589527,1.664297 11.189474,0 0.02441,-0.01127 0.05311,-0.0075 0.07375,0.0097 0.112252,0.09277 0.227287,0.183222 0.345105,0.271353 0.04272,0.02921 0.03973,0.09319 -0.0055,0.118282 -0.554403,0.325184 -1.135925,0.601746 -1.73805,0.826583 -0.01942,0.007 -0.03472,0.02233 -0.04175,0.04175 -0.0068,0.01874 -0.0053,0.03952 0.0042,0.05705 0.333972,0.647071 0.71665,1.26492 1.136898,1.849373 0.01742,0.02487 0.04897,0.03558 0.07793,0.02643 2.002534,-0.612747 3.88554,-1.563427 5.567603,-2.810936 0.01692,-0.01195 0.02763,-0.03083 0.02922,-0.05148 0.464683,-4.802251 -0.777972,-8.974126 -3.292509,-12.671481 -0.0044,-0.012808 -0.01481,-0.022666 -0.02784,-0.026439 M 12.451764,19.044979 c -1.097934,0 -2.001052,-1.007484 -2.001052,-2.243182 0,-1.235699 0.886418,-2.244575 2.001052,-2.244575 1.122983,0 2.017752,1.015834 2.001053,2.244575 0,1.235698 -0.886419,2.243182 -2.001053,2.243182 m 7.397492,0 c -1.096543,0 -2.001052,-1.007484 -2.001052,-2.243182 0,-1.235699 0.886419,-2.244575 2.001052,-2.244575 1.122985,0 2.019143,1.015834 2.001054,2.244575 0,1.235698 -0.878069,2.243182 -2.001054,2.243182"
     id="path1"
     style="fill:#dbdbe3;fill-opacity:1;stroke-width:1.39155"
     sodipodi:nodetypes="cccccccccccccccccccccccccccccccccccsscccsscc" /></svg>
