<?xml version="1.0" encoding="UTF-8" standalone="no"?>
<!-- Generator: Adobe Illustrator 16.0.0, SVG Export Plug-In . SVG Version: 6.00 Build 0)  -->

<svg
   version="1.1"
   id="socialicious"
   x="0px"
   y="0px"
   width="32"
   height="32"
   viewBox="0 0 32 32"
   xml:space="preserve"
   sodipodi:docname="github.svg"
   inkscape:version="1.4.2 (f4327f4, 2025-05-13)"
   xmlns:inkscape="http://www.inkscape.org/namespaces/inkscape"
   xmlns:sodipodi="http://sodipodi.sourceforge.net/DTD/sodipodi-0.dtd"
   xmlns="http://www.w3.org/2000/svg"
   xmlns:svg="http://www.w3.org/2000/svg"><defs
   id="defs1" /><sodipodi:namedview
   id="namedview1"
   pagecolor="#ffffff"
   bordercolor="#000000"
   borderopacity="0.25"
   inkscape:showpageshadow="2"
   inkscape:pageopacity="0.0"
   inkscape:pagecheckerboard="0"
   inkscape:deskcolor="#d1d1d1"
   inkscape:zoom="17.012989"
   inkscape:cx="2.086641"
   inkscape:cy="31.358393"
   inkscape:window-width="3148"
   inkscape:window-height="1401"
   inkscape:window-x="260"
   inkscape:window-y="181"
   inkscape:window-maximized="0"
   inkscape:current-layer="socialicious" />
<style
   type="text/css"
   id="style1">
<![CDATA[
	.st0{fill:#464342;}
	.st1{fill:#E04B26;}
	.st2{fill:#E74B24;}
	.st3{fill:#E94C88;}
	.st4{fill:#1AB6EA;}
	.st5{fill:#EA2429;}
	.st6{fill:#EC1E82;}
	.st7{fill:#B9B9BA;}
	.st8{fill:#EE3E53;}
	.st9{fill:#EE4977;}
	.st10{fill:#5496D0;}
	.st11{fill:#BBBBBB;}
	.st12{fill:#BCBCBC;}
	.st13{fill:#F16722;}
	.st14{fill:#5A471C;}
	.st15{fill:url(#SVGID_1_);}
	.st16{fill:url(#SVGID_2_);}
	.st17{fill:#2AA9E0;}
	.st18{fill-rule:evenodd;clip-rule:evenodd;fill:#BBBBBB;}
	.st19{fill-rule:evenodd;clip-rule:evenodd;fill:#BCBCBC;}
	.st20{fill:#C93C27;}
	.st21{fill:#638BB0;}
	.st22{fill:#CA2027;}
	.st23{fill:#30302F;}
	.st24{fill:#34373D;}
	.st25{fill:#00405D;}
	.st26{fill:#007EE5;}
	.st27{fill:#00A8E1;}
	.st28{fill-rule:evenodd;clip-rule:evenodd;fill:#FFFFFF;}
	.st29{fill:#035795;}
	.st30{fill:#3C5A97;}
	.st31{fill:#3F64AE;}
	.st32{fill:#3F729B;}
	.st33{fill:#A42F23;}
	.st34{fill:#75C044;}
	.st35{fill:#A72723;}
	.st36{fill:#DB2726;}
	.st37{fill:#DD3333;}
	.st38{fill:url(#soundcloud_2_);}
	.st39{fill:#442D86;}
	.st40{fill:#44556B;}
]]>
</style>
<path
   id="github"
   class="st12"
   d="m 20.906344,31.035279 c -0.787614,0.157523 -1.071155,-0.346551 -1.071155,-0.75611 0,-0.504073 0.0315,-2.20532 0.0315,-4.316126 0,-1.480715 -0.504073,-2.425852 -1.071155,-2.929926 3.497008,-0.378054 7.183042,-1.732751 7.183042,-7.781629 0,-1.732751 -0.598586,-3.118953 -1.606733,-4.221613 0.157523,-0.409559 0.693101,-1.9847879 -0.157523,-4.1586033 0,0 -1.323192,-0.4095595 -4.316126,1.6067331 -1.260183,-0.3465503 -2.614879,-0.5355777 -3.938071,-0.5355777 -1.323192,0 -2.677889,0.1890274 -3.938072,0.5355777 C 8.9661115,6.4302077 7.6429194,6.8712717 7.6429194,6.8712717 6.792296,9.0450871 7.3278737,10.651821 7.4853966,11.029875 c -1.0081463,1.10266 -1.6382378,2.520366 -1.6382378,4.221613 0,6.048878 3.686035,7.37207 7.1830422,7.781629 -0.441064,0.378055 -0.850623,1.10266 -1.008146,2.110807 -0.913633,0.409559 -3.1819618,1.10266 -4.568163,-1.323192 0,0 -0.8191189,-1.51222 -2.425852,-1.638238 0,0 -1.543724,-0.0315 -0.094514,0.945137 0,0 1.0396508,0.472569 1.764256,2.299834 0,0 0.9136326,2.803907 5.292768,1.85877 0,1.323192 0.03151,2.55187 0.03151,2.929925 0,0.409559 -0.283541,0.913632 -1.071155,0.756109 C 4.6814897,28.955977 0.17633586,23.033117 0.17633586,16.070607 0.17633586,7.3753448 7.23336,0.31832072 15.928622,0.31832072 c 8.695262,0 15.752286,7.05702408 15.752286,15.75228628 0,6.96251 -4.505154,12.88537 -10.774564,14.964672 z"
   style="stroke-width:0.315046" />
</svg>
