<?xml version="1.0" encoding="UTF-8" standalone="no"?>
<svg
   enable-background="new 0 0 512 512"
   id="Layer_1"
   version="1.1"
   viewBox="0 0 32 32"
   xml:space="preserve"
   sodipodi:docname="google.svg"
   width="32"
   height="32"
   inkscape:version="1.4.2 (f4327f4, 2025-05-13)"
   xmlns:inkscape="http://www.inkscape.org/namespaces/inkscape"
   xmlns:sodipodi="http://sodipodi.sourceforge.net/DTD/sodipodi-0.dtd"
   xmlns="http://www.w3.org/2000/svg"
   xmlns:svg="http://www.w3.org/2000/svg"><defs
     id="defs4" /><sodipodi:namedview
     id="namedview4"
     pagecolor="#ffffff"
     bordercolor="#000000"
     borderopacity="0.25"
     inkscape:showpageshadow="2"
     inkscape:pageopacity="0.0"
     inkscape:pagecheckerboard="0"
     inkscape:deskcolor="#d1d1d1"
     inkscape:zoom="16"
     inkscape:cx="30.53125"
     inkscape:cy="20.5625"
     inkscape:window-width="3030"
     inkscape:window-height="1234"
     inkscape:window-x="776"
     inkscape:window-y="43"
     inkscape:window-maximized="0"
     inkscape:current-layer="Layer_1" /><g
     id="g4"
     transform="matrix(0.06110256,0,0,0.06110256,0.0955317,0.2036708)"><path
       d="m 42.4,145.9 c 15.5,-32.3 37.4,-59.6 65,-82.3 37.4,-30.9 80.3,-49.5 128.4,-55.2 56.5,-6.7 109.6,4 158.7,33.4 12.2,7.3 23.6,15.6 34.5,24.6 2.7,2.2 2.4,3.5 0.1,5.7 -22.3,22.2 -44.6,44.4 -66.7,66.8 -2.6,2.6 -4,2.4 -6.8,0.3 -64.8,-49.9 -159.3,-36.4 -207.6,29.6 -8.5,11.6 -15.4,24.1 -20.2,37.7 -0.4,1.2 -1.2,2.3 -1.8,3.5 -12.9,-9.8 -25.9,-19.6 -38.7,-29.5 -15,-11.5 -30,-23 -44.9,-34.6 z"
       fill="#e94335"
       id="path1" /><path
       d="m 126,303.8 c 4.3,9.5 7.9,19.4 13.3,28.3 22.7,37.2 55.1,61.1 97.8,69.6 38.5,7.7 75.5,2.5 110,-16.8 1.2,-0.6 2.4,-1.2 3.5,-1.8 0.6,0.6 1.1,1.3 1.7,1.8 25.8,20 51.7,40 77.5,60 -12.4,12.3 -26.5,22.2 -41.5,30.8 -43.5,24.8 -90.6,34.8 -140.2,31 C 186.3,501.9 133,477.5 89,433.5 69.7,414.2 53.8,392.4 42.3,367.5 53,359.3 63.7,351.2 74.4,343 91.6,329.9 108.8,316.9 126,303.8 Z"
       fill="#34a853"
       id="path2" /><path
       d="m 429.9,444.9 c -25.8,-20 -51.7,-40 -77.5,-60 -0.6,-0.5 -1.2,-1.2 -1.7,-1.8 8.9,-6.9 18,-13.6 25.3,-22.4 12.2,-14.6 20.3,-31.1 24.5,-49.6 0.5,-2.3 0.1,-3.1 -2.2,-3 -1.2,0.1 -2.3,0 -3.5,0 -40.8,0 -81.7,-0.1 -122.5,0.1 -4.5,0 -5.5,-1.2 -5.4,-5.5 0.2,-29 0.2,-58 0,-87 0,-3.7 1,-4.7 4.7,-4.7 74.8,0.1 149.6,0.1 224.5,0 3.2,0 4.5,0.8 5.3,4.2 6.1,27.5 5.7,55.1 2,82.9 -3,22.2 -8.4,43.7 -16.7,64.5 -12.3,30.7 -30.4,57.5 -54.2,80.5 -0.9,0.7 -1.8,1.2 -2.6,1.8 z"
       fill="#4285f3"
       id="path3" /><path
       d="M 126,303.8 C 108.8,316.9 91.6,329.9 74.4,343 63.7,351.1 53,359.3 42.3,367.5 34,352.1 28.6,335.8 24.2,319 c -8.4,-32.5 -9.7,-65.5 -5.1,-98.6 3.6,-26 11.1,-51 23.2,-74.4 15,11.5 29.9,23.1 44.9,34.6 12.9,9.9 25.8,19.7 38.7,29.5 -2.2,10.7 -5.3,21.2 -6.3,32.2 -1.8,20 0.1,39.5 5.8,58.7 0.4,0.8 0.5,1.8 0.6,2.8 z"
       fill="#fabb06"
       id="path4" /></g></svg>
