<?xml version="1.0" encoding="UTF-8" standalone="no"?>
<!-- Created with Inkscape (http://www.inkscape.org/) -->

<svg
   width="32"
   height="31.999998"
   viewBox="0 0 8.4666664 8.4666661"
   version="1.1"
   id="svg1"
   xml:space="preserve"
   xmlns="http://www.w3.org/2000/svg"
   xmlns:svg="http://www.w3.org/2000/svg">
   <defs id="defs1" />
   <style>
    path {
        fill: #000;
    }
    @media (prefers-color-scheme: dark) {
        path {
            fill: #eee;
        }
    }
   </style>
   <g id="layer1">
     <path id="path2"
       d="m 1.0014893,0.06717936 c -0.16732465,0 -0.20762121,0.0065007 -0.31470951,0.08681641 C 0.61315689,0.19415371 0.51292195,0.29433843 0.45268555,0.37465413 0.39914145,0.448277 0.31197483,0.58894297 0.27181803,0.68264567 0.23165898,0.77634744 0.17823342,0.91703924 0.16484782,0.99735514 0.14476932,1.0977499 0.13125814,2.048294 0.13125814,4.2235148 c 0,2.1685275 0.0135102,3.1320658 0.0335897,3.2592326 0.0133853,0.093702 0.0668618,0.2546212 0.12040609,0.3550171 0.0468509,0.1003948 0.12729884,0.220859 0.17414957,0.2744018 0.0468509,0.053545 0.13354972,0.1334746 0.19378662,0.1736329 0.060237,0.040157 0.14745269,0.080639 0.19430339,0.087333 0.0401581,0.0067 0.15385249,0.013436 0.25424799,0.013436 0.1003942,0.00669 0.2411114,-0.013507 0.3214274,-0.03359 C 1.5034844,8.3262075 1.617181,8.2862152 1.677417,8.2594442 1.7376539,8.225979 1.9115185,8.1724562 2.0520711,8.1256022 2.199317,8.0787539 2.3400086,8.0315012 2.3667806,8.0181152 2.4002453,8.004726 2.54768,7.957999 2.6949259,7.911145 2.842171,7.8709835 3.0628197,7.8040741 3.1899862,7.7773031 3.31046,7.7505321 3.4708635,7.7173085 3.5444865,7.7039225 L 3.6984823,7.6837687 V 6.8936361 C 3.5311576,6.8869471 3.3975188,6.8806162 3.203422,6.8538452 3.1431852,6.8471482 3.0360581,6.8335907 2.9155843,6.8068197 2.8285753,6.7867407 2.6478432,6.7332177 2.4939046,6.6729777 2.32658,6.6060475 2.1124009,6.4989203 1.938383,6.38514 1.7710583,6.2713587 1.5704393,6.1107315 1.4298869,5.9701782 1.2960269,5.829626 1.1484679,5.6420504 1.0681519,5.5081909 0.98783545,5.3810242 0.88762655,5.1873734 0.84077555,5.0735921 0.79392555,4.9531181 0.73370559,4.7656928 0.70693359,4.6519124 0.68685459,4.5381315 0.6598901,4.3440135 0.6531901,4.2302327 c 0,-0.1070878 0.006792,-0.3012557 0.0268717,-0.4351155 C 0.6934488,3.6679503 0.7271871,3.4873182 0.7539591,3.4003092 0.7807301,3.3133002 0.8139526,3.2126241 0.8273396,3.1858521 0.84072498,3.1590802 0.89420137,3.0453848 0.94774577,2.931604 1.0012891,2.8245162 1.1149604,2.6505769 1.1952759,2.5367961 1.2755915,2.4297084 1.4365119,2.2558188 1.550293,2.155424 1.6640733,2.0483361 1.8379886,1.9076195 1.938383,1.8339966 2.0454706,1.7670667 2.2058995,1.6731083 2.2996012,1.6262573 2.4736192,1.5459415 2.701359,1.4725497 2.9021484,1.4123169 2.9623854,1.3989329 3.0963098,1.3719564 3.1967041,1.3585734 3.3037919,1.3384944 3.4574765,1.3322005 3.5444865,1.3255005 l 0.1607137,-0.00672 V 1.0707357 0.8299235 L 3.59823,0.80976969 C 3.3773612,0.77630476 3.1764114,0.72983958 2.8618408,0.63613688 2.2326999,0.46211977 2.1795298,0.44158433 1.9921265,0.37465413 1.8917315,0.34118878 1.7443211,0.28771265 1.6706991,0.25424805 1.5970761,0.2207827 1.4564105,0.16730656 1.3627075,0.13384196 1.2355412,0.08699096 1.1286566,0.06717936 1.0014893,0.06717936 Z M 4.0400635,1.0841715 c 0,0.4350441 0.00672,0.8770952 0.00672,1.3322185 l 0.2206584,0.013436 c 0.1204737,0.013386 0.2746762,0.033123 0.3482991,0.046509 0.073623,0.020079 0.1805252,0.047075 0.2273763,0.060462 0.2141752,0.06693 0.4553759,0.1672642 0.622701,0.2609659 0.093702,0.060237 0.2743097,0.1807249 0.38809,0.2811198 0.2007898,0.1606316 0.381362,0.3546825 0.5152141,0.5420858 0.026771,0.046851 0.060479,0.100352 0.067179,0.127124 0.0067,0.013386 0.026476,0.040308 0.059945,0.040308 h 0.2211751 0.287321 c 0.020083,0 0.060461,0.019836 0.060461,0.07338 v 0.9038208 c 0,0.8700883 -2.025e-4,0.9234403 -0.053743,1.0572998 C 6.9779931,5.9032161 6.9177524,6.0438819 6.8708984,6.1308919 6.8307401,6.2179013 6.7373013,6.3782799 6.6636759,6.4786743 6.5967466,6.5790692 6.4695867,6.7467329 6.3892741,6.8471273 6.3022657,6.9475221 6.1485551,7.1012115 6.0347738,7.1949097 5.920996,7.2886109 5.8337524,7.3758979 5.8337524,7.4093669 c 0,0.013385 1.507e-4,0.046509 0.040308,0.046509 h 0.6289021 c 0.5956755,0 0.6962385,-0.00637 0.8769491,-0.053227 0.120474,-0.033468 0.2673886,-0.086967 0.3276286,-0.127124 C 7.7744712,7.2353669 7.901649,7.1413598 7.98866,7.0543498 8.075668,6.9740338 8.1696262,6.8603417 8.1963992,6.8001017 c 0.033458,-0.060237 0.073451,-0.1941612 0.093534,-0.2945556 0.026769,-0.147246 0.03359,-0.6223627 0.03359,-2.1952149 0,-1.1712727 -0.00679,-2.0814086 -0.026872,-2.1884969 C 8.2631856,1.8875798 8.2230633,1.80025 8.0289673,1.6195394 7.9419579,1.5325306 7.8147745,1.439064 7.7478475,1.405599 7.6809182,1.3721347 7.5605065,1.3254267 7.4868815,1.3053467 7.3797939,1.2718827 7.1054335,1.2582713 6.1148722,1.2448853 5.0573796,1.2248063 4.8431512,1.2183557 4.5754313,1.1715047 4.4081065,1.1380397 4.2206816,1.1109934 4.1537516,1.0976074 Z m 0.026872,1.6334921 c -0.1070877,0 -0.2747519,0.00625 -0.3684529,0.019637 C 3.598088,2.7573796 3.4708556,2.7844 3.4039266,2.80448 3.3369963,2.8312517 3.2165587,2.8780101 3.1362427,2.9181681 3.0492336,2.9650191 2.9287708,3.0320308 2.8618408,3.0788818 2.7949106,3.1257326 2.66773,3.2529138 2.580721,3.3600016 2.4669399,3.4871682 2.413607,3.5806173 2.3600627,3.707784 2.2998259,3.8684157 2.2598348,3.9690066 2.2665283,4.1764893 c 0,0.2007898 8.18e-5,0.3879801 0.1607137,0.6356201 0.060237,0.087009 0.1739072,0.2209075 0.2475301,0.2878377 0.1338599,0.1137804 0.3347281,0.2479052 0.5756755,0.3482992 0.06693,0.026772 0.2003372,0.059995 0.2940389,0.07338 0.033465,0.00669 0.1941435,0.040308 0.4283976,0.040308 0.147246,0 0.3279029,-0.020255 0.4015259,-0.047026 C 4.6019713,5.4546723 4.8699947,5.3612236 5.0105469,5.1671265 H 4.5351237 4.0534993 V 4.4844808 3.8018351 l 0.9973552,-0.00672 c 0.5488244,-0.0067 0.9968384,0.00667 0.9968384,-0.00672 0,-0.00669 -0.039912,-0.087067 -0.073381,-0.1539958 C 5.9341549,3.5741666 5.8604217,3.4936182 5.8068807,3.4333822 5.7332577,3.3597594 5.6665353,3.3065495 5.5862223,3.2463135 5.5326785,3.1994627 5.405498,3.112272 5.3051025,3.058728 5.2114004,3.0051834 5.0437834,2.9314783 4.9500854,2.8980143 4.8496905,2.8578565 4.6555231,2.8043553 4.5149699,2.7708903 4.3744169,2.7441183 4.1740235,2.7176636 4.0669355,2.7176636 Z M 5.4854533,5.2007161 5.3516113,5.3211222 C 5.2244454,5.4415954 5.1375166,5.5018251 4.9568034,5.5955241 4.8162502,5.669145 4.7094868,5.7093339 4.6291748,5.7428019 4.441772,5.8164201 4.2408781,5.8363861 4.0467814,5.8497721 l -0.00672,0.8030518 V 7.4558757 H 4.7630168 5.4854533 V 6.3184774 Z" />
   </g>
</svg>
