<?xml version="1.0" encoding="UTF-8" standalone="no"?>
<!-- Created with Inkscape (http://www.inkscape.org/) -->

<svg
   width="160"
   height="32"
   viewBox="0 0 42.333332 8.4666666"
   version="1.1"
   id="svg1"
   inkscape:version="1.4.2 (f4327f4, 2025-05-13)"
   sodipodi:docname="logo_s.svg"
   xml:space="preserve"
   xmlns:inkscape="http://www.inkscape.org/namespaces/inkscape"
   xmlns:sodipodi="http://sodipodi.sourceforge.net/DTD/sodipodi-0.dtd"
   xmlns="http://www.w3.org/2000/svg"
   xmlns:svg="http://www.w3.org/2000/svg"><sodipodi:namedview
     id="namedview1"
     pagecolor="#303030"
     bordercolor="#000000"
     borderopacity="0.25"
     inkscape:showpageshadow="2"
     inkscape:pageopacity="0.0"
     inkscape:pagecheckerboard="0"
     inkscape:deskcolor="#d1d1d1"
     inkscape:document-units="mm"
     inkscape:zoom="2.8284271"
     inkscape:cx="93.161319"
     inkscape:cy="46.492271"
     inkscape:window-width="1912"
     inkscape:window-height="1255"
     inkscape:window-x="546"
     inkscape:window-y="37"
     inkscape:window-maximized="0"
     inkscape:current-layer="layer1" /><defs
     id="defs1"><pattern
       id="EMFhbasepattern"
       patternUnits="userSpaceOnUse"
       width="6"
       height="6"
       x="0"
       y="0" /></defs><g
     inkscape:label="Layer 1"
     inkscape:groupmode="layer"
     id="layer1"><path
       style="fill:#b3b3b3;fill-opacity:1;fill-rule:nonzero;stroke:none;stroke-width:0.0274264"
       d="m 10.66636,4.2551522 c 0,-1.9564158 0,-1.9564158 0,-1.9564158 1.033062,0 1.033062,0 1.033062,0 0.649091,0 1.11534,0.0091 1.252474,0.036571 0.118846,0.027423 0.283404,0.091417 0.374826,0.155416 0.09142,0.063994 0.21941,0.2011265 0.283406,0.2925485 0.109707,0.1828433 0.109707,0.1919848 0.109707,0.6490911 0,0.438823 -0.0091,0.466249 -0.109707,0.6765182 -0.07314,0.1279899 -0.173701,0.2559797 -0.265123,0.3291164 -0.09143,0.073142 -0.255978,0.155417 -0.365684,0.182843 -0.118848,0.036571 -0.219411,0.073141 -0.237696,0.082279 -0.0091,0.018286 0.05486,0.1371315 0.146273,0.2834059 0.265123,0.402253 0.649093,0.9416395 0.758798,1.051345 0.0457,0.063994 0.08228,0.1188482 0.07313,0.1371327 -0.01829,0.018285 -0.237696,0.036571 -0.502819,0.036571 -0.484532,0 -0.484532,0 -0.484532,0 C 12.394228,5.6904733 12.394228,5.6904733 12.394228,5.6904733 12.211386,5.3979246 12.001117,5.0688083 11.92798,4.9499601 11.799991,4.7396919 11.799991,4.7396919 11.608005,4.7488336 c -0.191985,0.018286 -0.191985,0.018286 -0.191985,0.018286 -0.0091,0.7222276 -0.0091,0.7222276 -0.0091,0.7222276 -0.0091,0.7222287 -0.0091,0.7222287 -0.0091,0.7222287 -0.365686,0 -0.365686,0 -0.365686,0 -0.365687,0 -0.365687,0 -0.365687,0 z m 2.038697,-0.1645576 c 0.064,-0.045708 0.155416,-0.1279899 0.191985,-0.1919848 0.05487,-0.1005649 0.07313,-0.1828431 0.07313,-0.4296802 0,-0.2468381 -0.01828,-0.3382591 -0.07313,-0.42968 -0.03657,-0.063994 -0.118849,-0.1371326 -0.173702,-0.1462744 -0.05487,-0.018285 -0.374827,-0.027423 -0.703944,-0.027423 -0.603379,0 -0.603379,0 -0.603379,0 -0.0091,0.274263 -0.0091,0.274263 -0.0091,0.274263 -0.0091,0.1462744 0,0.4388229 0.0091,0.6490921 0.02742,0.3748281 0.02742,0.3748281 0.02742,0.3748281 0.566813,0 0.566813,0 0.566813,0 0.511959,0 0.585096,-0.0091 0.694802,-0.073141 z m 1.764431,0.1645576 c 0,-1.9564158 0,-1.9564158 0,-1.9564158 0.959924,0 0.959924,0 0.959924,0 0.530245,0 1.060489,0.018285 1.197619,0.036571 0.127989,0.018286 0.274266,0.063994 0.329118,0.091417 0.05487,0.027423 0.155414,0.1005648 0.219411,0.1645577 0.064,0.063994 0.146274,0.182843 0.191985,0.2651224 0.07314,0.1371327 0.08228,0.2011276 0.08228,0.7039443 0,0.4936751 -0.0091,0.5668127 -0.09142,0.740512 -0.0457,0.1097065 -0.155415,0.2559809 -0.25598,0.347402 -0.100566,0.091427 -0.265122,0.182842 -0.374827,0.2285525 -0.146274,0.045708 -0.338257,0.063995 -0.841076,0.082279 -0.649091,0.0091 -0.649091,0.0091 -0.649091,0.0091 0,0.6216649 0,0.6216649 0,0.6216649 0,0.6216651 0,0.6216651 0,0.6216651 -0.383971,0 -0.383971,0 -0.383971,0 -0.383969,0 -0.383969,0 -0.383969,0 z m 2.020413,0.045708 c 0.05486,-0.03657 0.127988,-0.1188461 0.164557,-0.1828411 0.0457,-0.1005648 0.06399,-0.219412 0.06399,-0.5668127 0,-0.4205385 -0.0091,-0.4479645 -0.09143,-0.5393856 -0.0457,-0.054856 -0.155414,-0.1097066 -0.274263,-0.1279899 -0.100565,-0.027423 -0.393112,-0.036571 -0.639949,-0.036571 -0.457107,0.018285 -0.457107,0.018285 -0.457107,0.018285 -0.0091,0.7587977 -0.0091,0.7587977 -0.0091,0.7587977 -0.0091,0.7587953 -0.0091,0.7587953 -0.0091,0.7587953 0.575953,-0.0091 0.575953,-0.0091 0.575953,-0.0091 0.475391,-0.0091 0.59424,-0.027423 0.676518,-0.073142 z M 18.89428,6.1749989 C 18.802863,6.1567137 18.656585,6.1110045 18.574306,6.0652927 18.492026,6.0195844 18.364037,5.9373028 18.290899,5.873309 18.226905,5.8184525 18.126342,5.6813241 18.071488,5.5716176 18.025779,5.4710529 17.961784,5.2699284 17.943498,5.1236531 c -0.02742,-0.1645587 -0.03657,-0.6125223 -0.02742,-1.1061973 0.0091,-0.8319351 0.0091,-0.8319351 0.137133,-1.0879139 0.09142,-0.1737013 0.173699,-0.2834069 0.310832,-0.3839695 0.09142,-0.073141 0.246839,-0.155416 0.347402,-0.1828433 0.118847,-0.036571 0.429679,-0.045708 1.124481,-0.045708 0.969066,0 0.969066,0 0.969066,0 0,0.2742632 0,0.2742632 0,0.2742632 0,0.2742652 0,0.2742652 0,0.2742652 -0.767938,0.0091 -0.767938,0.0091 -0.767938,0.0091 -0.411396,0 -0.81365,0.0091 -0.877645,0.027423 -0.064,0.0091 -0.164559,0.063995 -0.228554,0.1188481 -0.06399,0.045708 -0.146274,0.1462733 -0.1737,0.2194109 -0.03657,0.091417 -0.05487,0.310833 -0.05487,0.9142135 0,0.4845334 0.01829,0.8502186 0.0457,0.9507823 0.0183,0.082279 0.09143,0.2102693 0.155419,0.2834049 0.05486,0.063995 0.164557,0.1371326 0.237695,0.1645588 0.08228,0.018285 0.3474,0.036571 0.630806,0.027423 0.493676,-0.0091 0.493676,-0.0091 0.493676,-0.0091 0,-0.4571062 0,-0.4571062 0,-0.4571062 0,-0.4571062 0,-0.4571062 0,-0.4571062 -0.338253,-0.0091 -0.338253,-0.0091 -0.338253,-0.0091 -0.338259,-0.018286 -0.338259,-0.018286 -0.338259,-0.018286 0,-0.2285535 0,-0.2285535 0,-0.2285535 0,-0.2376943 0,-0.2376943 0,-0.2376943 0.713087,0 0.713087,0 0.713087,0 0.713086,0 0.713086,0 0.713086,0 0,1.023919 0,1.023919 0,1.023919 0,1.0239178 0,1.0239178 0,1.0239178 -0.978208,-0.0091 -0.978208,-0.0091 -0.978208,-0.0091 -0.539386,0 -1.051346,-0.018286 -1.142768,-0.027423 z m 7.359417,-0.018286 C 26.125708,6.1292909 25.952007,6.0561488 25.869729,6.0012966 25.787448,5.9464401 25.668602,5.8458817 25.604606,5.7818858 25.54975,5.7087439 25.467473,5.5624748 25.421763,5.4436266 25.366907,5.3339222 25.312058,5.1145102 25.293774,4.9590932 25.266351,4.7945356 25.257203,4.4471348 25.266351,4.035739 c 0.0091,-0.4662488 0.03657,-0.7130869 0.08228,-0.8502195 0.02742,-0.1005649 0.118846,-0.2651215 0.191985,-0.3656852 0.07313,-0.1005648 0.191984,-0.2285536 0.265121,-0.2834049 0.08228,-0.054856 0.21027,-0.1279909 0.301691,-0.155417 0.12799,-0.054856 0.338258,-0.063994 1.188477,-0.073131 1.033061,-0.018285 1.033061,-0.018285 1.033061,-0.018285 0,0.2925474 0,0.2925474 0,0.2925474 0,0.3016914 0,0.3016914 0,0.3016914 -0.850219,0 -0.850219,0 -0.850219,0 -0.81365,0 -0.85936,0 -1.014777,0.082279 -0.09141,0.045708 -0.201126,0.1371315 -0.246837,0.2011254 -0.0457,0.073142 -0.100565,0.1919859 -0.127991,0.2742651 -0.02742,0.1005648 -0.0457,0.3839686 -0.0457,0.7770811 0,0.4845334 0.0091,0.6582327 0.06399,0.8227913 0.03657,0.1188482 0.109706,0.2651224 0.155417,0.3199757 0.05486,0.063994 0.1737,0.1462732 0.265121,0.1919838 0.164559,0.082279 0.21027,0.091427 0.987352,0.082279 0.813648,0 0.813648,0 0.813648,0 0,0.2834069 0,0.2834069 0,0.2834069 0,0.2925475 0,0.2925475 0,0.2925475 -0.923356,-0.0091 -0.923356,-0.0091 -0.923356,-0.0091 -0.639948,0 -0.996491,-0.018286 -1.151908,-0.045708 z m 3.400874,0.018286 C 29.572291,6.1567129 29.444304,6.1110049 29.371166,6.0744339 29.298016,6.0470109 29.188322,5.9555858 29.13347,5.8824492 29.06947,5.8184552 28.996339,5.6813227 28.96891,5.5899005 28.9232,5.4710524 28.89579,5.2516425 28.88663,4.8585301 c -0.01828,-0.4571072 -0.0091,-0.6216649 0.0457,-0.8045079 0.02742,-0.1371316 0.100565,-0.3108331 0.164559,-0.3839686 0.06399,-0.1005649 0.182843,-0.191986 0.347401,-0.2742653 0.246838,-0.1279898 0.246838,-0.1279898 0.932498,-0.1279898 0.68566,0 0.68566,0 0.895928,0.1097065 0.137134,0.063994 0.265124,0.1645587 0.33826,0.2651215 0.06399,0.082279 0.146273,0.2376952 0.1737,0.3474007 0.03657,0.1188482 0.05486,0.3291164 0.05486,0.6033816 0,0.2376943 -0.01828,0.5302428 -0.03657,0.6673754 -0.02742,0.1279888 -0.08228,0.3016902 -0.127989,0.3839695 -0.05487,0.082279 -0.155417,0.2102693 -0.237697,0.283406 -0.09142,0.073131 -0.228553,0.1554159 -0.319973,0.1919848 -0.127991,0.045708 -0.329118,0.063995 -0.740513,0.073131 -0.310833,0.0091 -0.639948,0 -0.722229,-0.018286 z M 30.852191,5.58076 c 0.07313,-0.054856 0.146275,-0.1462742 0.173701,-0.2102692 0.02742,-0.082279 0.0457,-0.3565435 0.0457,-0.6765171 0,-0.3656863 -0.01829,-0.5850971 -0.0457,-0.6399504 -0.02742,-0.045708 -0.09142,-0.1188472 -0.146275,-0.1645589 -0.09142,-0.063994 -0.155415,-0.073141 -0.5211,-0.073141 -0.365686,0 -0.429682,0.0091 -0.521104,0.073141 -0.05486,0.045708 -0.118846,0.1188482 -0.146273,0.1645588 -0.02742,0.054857 -0.0457,0.2834057 -0.0457,0.6673765 0,0.4205373 0.0183,0.6125232 0.05486,0.7039432 0.03657,0.082279 0.09142,0.1462742 0.173701,0.1828431 0.07313,0.027423 0.246837,0.045708 0.484533,0.054856 0.329116,0 0.383968,-0.0091 0.493675,-0.082279 z m 1.645584,-1.3256102 c 0,-1.9564158 0,-1.9564158 0,-1.9564158 0.365686,0 0.365686,0 0.365686,0 0.201126,0 0.365685,0.0091 0.365685,0.027423 0,0.0091 0.0091,0.2011276 0.0091,0.4113956 0.0091,0.2651226 0.02742,0.4113957 0.05487,0.4388229 0.03657,0.036571 0.237696,0.054857 0.713086,0.073131 0.42054,0.0091 0.731371,0.036571 0.831936,0.073142 0.109706,0.027423 0.228552,0.1188482 0.347399,0.2376953 0.137132,0.1279898 0.201128,0.2285536 0.237696,0.3656852 0.03657,0.1279898 0.05487,0.3565434 0.05487,0.7679403 0,0.4571062 -0.0183,0.621665 -0.06399,0.7679382 -0.03657,0.1097054 -0.12799,0.2651225 -0.210269,0.3474018 -0.07314,0.091417 -0.210269,0.2011265 -0.30169,0.246837 -0.09143,0.045708 -0.246837,0.091417 -0.356544,0.1188481 -0.109704,0.018286 -0.612522,0.036571 -1.124482,0.036571 -0.923355,0 -0.923355,0 -0.923355,0 z m 1.938133,1.3530363 c 0.100565,-0.027423 0.146272,-0.082279 0.210268,-0.2011275 0.07313,-0.1462732 0.08228,-0.2194098 0.08228,-0.7039433 0,-0.4205384 -0.0091,-0.5759543 -0.05487,-0.649092 -0.02742,-0.063994 -0.109707,-0.1371316 -0.173701,-0.1737004 -0.100566,-0.054856 -0.210269,-0.063994 -0.603381,-0.063994 -0.457106,0 -0.484533,0 -0.566812,0.082279 -0.08228,0.082279 -0.08228,0.100565 -0.08228,0.7679393 0,0.3748269 0.0091,0.7313704 0.02742,0.7862225 0.01829,0.054856 0.064,0.1188483 0.109705,0.1371327 0.0457,0.027423 0.137133,0.054856 0.210268,0.073142 0.164558,0.036571 0.667376,0 0.841077,-0.054856 z M 36.84943,6.1567143 C 36.75801,6.1384283 36.620877,6.0744353 36.54774,6.0287231 36.47461,5.9830151 36.364897,5.8733082 36.300901,5.7910289 c -0.05486,-0.082279 -0.118846,-0.219412 -0.146273,-0.2925487 -0.01828,-0.082279 -0.0457,-0.3656851 -0.06399,-0.6216659 -0.02742,-0.6125223 0.02742,-0.9416385 0.182842,-1.179335 0.09142,-0.1371316 0.173701,-0.2102681 0.374828,-0.3016901 0.246838,-0.12799 0.246838,-0.12799 0.886788,-0.1462744 0.511959,-0.0091 0.667373,0 0.813651,0.054856 0.100564,0.027423 0.246836,0.1097055 0.329116,0.1645587 0.100563,0.073141 0.182841,0.1828432 0.246837,0.3199747 0.100565,0.2011266 0.100565,0.2194109 0.100565,0.9416396 0,0.6490912 -0.0091,0.740512 -0.07313,0.8593602 -0.03657,0.063994 -0.109704,0.1737015 -0.155417,0.2468381 -0.05486,0.063994 -0.201125,0.1645577 -0.329116,0.2376953 -0.246837,0.1188472 -0.246837,0.1188472 -0.850218,0.1279899 -0.402254,0 -0.658233,-0.0091 -0.76794,-0.045708 z m 1.234188,-0.5485285 c 0.0457,-0.036571 0.109706,-0.1005649 0.146274,-0.155417 0.05486,-0.082279 0.06399,-0.1919838 0.06399,-0.7130849 0,-0.5576701 -0.0091,-0.621665 -0.07313,-0.7130871 -0.0457,-0.054856 -0.137133,-0.1371328 -0.201126,-0.1737005 -0.100566,-0.045708 -0.191984,-0.063994 -0.493676,-0.045708 -0.274263,0 -0.393112,0.027423 -0.466248,0.073141 -0.05486,0.036571 -0.127991,0.1097055 -0.164559,0.1645589 -0.05486,0.082279 -0.06399,0.1828431 -0.06399,0.6673754 0,0.4571073 0.01828,0.5850972 0.06399,0.6856597 0.03657,0.063995 0.109705,0.1462744 0.164559,0.1737005 0.0457,0.036571 0.155415,0.082279 0.237694,0.091427 0.228554,0.045708 0.68566,0.0091 0.786223,-0.054856 z M 21.819764,4.2917189 c 0,-0.3108319 0,-0.3108319 0,-0.3108319 1.389603,0 1.389603,0 1.389603,0 1.389605,0 1.389605,0 1.389605,0 0,0.3108319 0,0.3108319 0,0.3108319 0,0.310833 0,0.310833 0,0.310833 -1.389605,0 -1.389605,0 -1.389605,0 -1.389603,0 -1.389603,0 -1.389603,0 z"
       id="path1" /><path
       style="fill:#b3b3b3;fill-opacity:1;fill-rule:nonzero;stroke:none;stroke-width:0.0143227"
       d="M 3.8490244,5.1039112 C 3.7821852,5.0943621 3.6867002,5.0704916 3.6389575,5.0513945 3.4670849,4.9797819 3.3238579,4.8842962 3.228373,4.8031344 3.1758564,4.7553913 3.0946945,4.6599071 3.0517263,4.5978416 2.9371443,4.4211951 2.9371443,4.2875164 2.9371443,4.1442891 2.9323643,3.9962875 2.9610153,3.924674 3.0039833,3.8100922 c 0.038194,-0.090711 0.076388,-0.15755 0.1575501,-0.2482604 0.062066,-0.076388 0.1527755,-0.1670986 0.2005182,-0.2005181 0.047742,-0.03342 0.1336785,-0.081163 0.1957439,-0.114582 0.057291,-0.028645 0.143227,-0.062065 0.1909698,-0.081162 0.047742,-0.014323 0.1384529,-0.033419 0.2100662,-0.047743 0.066839,-0.00955 0.1861957,-0.014324 0.2625835,-0.014324 0.076388,0 0.2196148,0.019097 0.319874,0.038194 0.1002594,0.023872 0.238712,0.062065 0.3103257,0.090711 0.066837,0.023871 0.1861952,0.076387 0.2530347,0.1145819 0.071614,0.038194 0.1623244,0.100259 0.2005182,0.1336786 0.057288,0.042968 0.1050328,0.081163 0.1575495,0.1336788 0.038192,0.042968 0.090712,0.100259 0.1193563,0.1432273 0.023873,0.047742 0.052519,0.1050332 0.052519,0.1098074 0,0.00955 -0.3198745,0 -0.7113618,0.00478 -0.7113619,0.00478 -0.7113619,0.00478 -0.7113619,0.00478 0,0.4869725 0,0.4869725 0,0.4869725 0,0.4869725 0,0.4869725 0,0.4869725 0.3437454,0 0.3437454,0 0.3437454,0 0.3389706,0 0.3389706,0 0.3389706,0 -0.100259,0.1384525 -0.2912291,0.205292 -0.453553,0.24826 -0.052517,0.019096 -0.1814212,0.033423 -0.2864547,0.033423 -0.1670981,0 -0.28168,-0.023874 -0.3055512,-0.028645 z"
       id="path2" /><path
       style="fill:#b3b3b3;fill-opacity:1;fill-rule:nonzero;stroke:none;stroke-width:0.0143227"
       d="m 5.481815,6.4502471 c 0,-0.023873 0.062067,-0.085936 0.1432266,-0.1527754 0.081163,-0.066837 0.19097,-0.1766472 0.2530349,-0.2482609 0.057288,-0.071614 0.148002,-0.1909692 0.1957441,-0.2625829 0.052519,-0.071614 0.1193555,-0.1861952 0.1480012,-0.2482607 0.033426,-0.062066 0.076382,-0.1623243 0.1002587,-0.2196151 0.038196,-0.095484 0.038196,-0.1336785 0.038196,-0.7543298 0,-0.3771651 0,-0.572909 0,-0.6445227 0,-0.038194 -0.028647,-0.052517 -0.042975,-0.052517 -0.033426,0 -0.09548,0 -0.2052924,0 -0.090711,0 -0.1241304,0 -0.1575502,0 -0.023873,0 -0.038193,-0.019097 -0.042971,-0.028645 -0.00478,-0.019097 -0.028644,-0.057291 -0.04774,-0.090711 C 5.7682696,3.6143483 5.6393645,3.4758953 5.4961371,3.3613136 5.4149754,3.2896999 5.286071,3.2037635 5.2192314,3.1607953 5.099875,3.093956 4.9280027,3.0223424 4.7752272,2.9746 4.7418076,2.96505 4.6654197,2.945955 4.612903,2.931632 4.5603864,2.922082 4.4505786,2.907761 4.3646424,2.898213 4.2070922,2.888663 4.2070922,2.888663 4.2070922,2.888663 c 0,-0.3246484 -0.00478,-0.6397484 -0.00478,-0.950074 0.081162,0.00955 0.081162,0.00955 0.081162,0.00955 0.047743,0.00955 0.1814211,0.028645 0.3007773,0.052517 0.1909699,0.03342 0.3437453,0.038194 1.0980758,0.052517 0.7065871,0.00955 0.902331,0.019097 0.9787192,0.042968 0.052515,0.014324 0.1384528,0.047743 0.1861949,0.071614 0.047735,0.023872 0.1384528,0.090711 0.2005184,0.1527757 0.1384528,0.1289045 0.1670979,0.1909696 0.1909694,0.358068 0.014328,0.076388 0.019098,0.7256847 0.019098,1.5611767 0,1.1219468 -0.00475,1.4609174 -0.023877,1.5659509 -0.014328,0.071614 -0.042966,0.1670983 -0.066833,0.2100663 -0.019098,0.042971 -0.085941,0.1241304 -0.1480037,0.1814213 -0.062064,0.062066 -0.1527754,0.1289043 -0.2005184,0.1575502 -0.042966,0.028645 -0.1480009,0.066836 -0.233938,0.09071 -0.1289038,0.033421 -0.2005175,0.038192 -0.6254248,0.038192 -0.2864547,0 -0.4010363,0 -0.4487782,0 -0.028645,0 -0.028645,-0.023873 -0.028645,-0.033422 z"
       id="path3" /><path
       style="fill:#b3b3b3;fill-opacity:1;fill-rule:nonzero;stroke:none;stroke-width:0.0143227"
       d="M 4.2023182,5.9107583 C 4.2070982,5.337849 4.2070982,5.337849 4.2070982,5.337849 4.3455512,5.328299 4.4887787,5.313976 4.6224568,5.261462 4.6797448,5.237589 4.7561354,5.208943 4.8563948,5.1564285 4.9853011,5.0895915 5.0473667,5.0466206 5.1380766,4.9606848 c 0.095485,-0.085936 0.095485,-0.085936 0.095485,-0.085936 0,0.7972977 0,0.7972977 0,0.7972977 0,0.8116212 0,0.8116212 0,0.8116212 -0.5156185,0 -0.5156185,0 -0.5156185,0 -0.5156175,0 -0.5156175,0 -0.5156175,0 z"
       id="path4" /><path
       style="fill:#b3b3b3;fill-opacity:1;fill-rule:nonzero;stroke:none;stroke-width:0.0143227"
       d="M 1.9250054,7.1377379 C 1.8915854,7.1329579 1.8295204,7.1043169 1.7865524,7.0756719 1.7435834,7.0470259 1.681519,6.9897359 1.6480993,6.9515416 1.6146803,6.9133486 1.5573883,6.8274118 1.5239694,6.7557981 1.4857754,6.6841831 1.4475814,6.5696029 1.4380334,6.5027633 1.4237104,6.4120523 1.4141614,5.7245619 1.4141614,4.1777082 c 0,-1.5516282 0.00955,-2.2295705 0.023872,-2.3011841 0.00955,-0.057291 0.047742,-0.1575499 0.076388,-0.2243892 0.028645,-0.06684 0.090711,-0.1670986 0.1289046,-0.2196152 0.042968,-0.057291 0.1145813,-0.1289046 0.1670981,-0.15755 0.076388,-0.057291 0.1050334,-0.062065 0.2243893,-0.062065 0.090711,0 0.1670988,0.014323 0.2578091,0.047743 0.06684,0.023871 0.1670986,0.062065 0.2196154,0.085936 0.052516,0.023871 0.1575496,0.062065 0.2291633,0.085936 0.1336785,0.047743 0.1718727,0.062066 0.6206514,0.1861954 0.2243894,0.06684 0.3676165,0.1002591 0.5251666,0.1241302 0.076387,0.014323 0.076387,0.014323 0.076387,0.014323 0,0.1718727 0,0.1718727 0,0.1718727 0,0.1766469 0,0.1766469 0,0.1766469 -0.1145819,0.00478 -0.1145819,0.00478 -0.1145819,0.00478 -0.062066,0.00478 -0.1718728,0.00955 -0.2482606,0.023872 -0.071614,0.00955 -0.1670983,0.028644 -0.2100665,0.038191 -0.143227,0.042964 -0.3055511,0.095481 -0.4296816,0.1527718 -0.066839,0.03342 -0.1814212,0.1002591 -0.257809,0.1480015 -0.071614,0.052517 -0.1957438,0.1527756 -0.2769055,0.2291635 -0.081163,0.071614 -0.1957443,0.195744 -0.253035,0.2721318 -0.057291,0.081162 -0.1384532,0.2052923 -0.1766467,0.2816801 -0.038194,0.081162 -0.076388,0.1623243 -0.085936,0.1814212 -0.00955,0.019097 -0.033421,0.090711 -0.052517,0.1527757 -0.019097,0.062065 -0.042968,0.1909696 -0.052517,0.2816802 -0.014324,0.095485 -0.019097,0.2339378 -0.019097,0.3103257 0.00478,0.081162 0.023871,0.2196152 0.038194,0.3007774 0.019097,0.081162 0.062065,0.2148403 0.095484,0.3007768 0.03342,0.081163 0.1050334,0.219615 0.1623247,0.3103256 0.057291,0.095484 0.1623241,0.2291639 0.2578091,0.3294226 0.1002588,0.1002594 0.2434857,0.214841 0.3628417,0.2960034 0.1241305,0.081162 0.2769061,0.1575495 0.3962621,0.2052922 0.1098074,0.042971 0.2387119,0.081162 0.3007771,0.095484 0.085936,0.019096 0.1623242,0.028645 0.2052922,0.033423 0.1384532,0.019096 0.233938,0.023873 0.353294,0.028645 0,0.2052929 0,0.3723912 0,0.5633612 -0.1098074,0.014325 -0.1098074,0.014325 -0.1098074,0.014325 -0.052517,0.00955 -0.1670987,0.033422 -0.2530351,0.052519 -0.090711,0.019096 -0.2482604,0.066837 -0.3532932,0.095484 -0.1050335,0.033422 -0.2100669,0.066837 -0.2339379,0.076387 -0.019097,0.00955 -0.119356,0.042971 -0.2243894,0.076388 -0.1002589,0.033422 -0.2243894,0.071614 -0.2673577,0.095484 -0.042968,0.019096 -0.1241304,0.04774 -0.181421,0.066837 -0.057291,0.014325 -0.1575503,0.028645 -0.2291635,0.023874 -0.071614,0 -0.1527756,-0.00478 -0.1814211,-0.00955 z"
       id="path5" /><text
       xml:space="preserve"
       style="font-style:normal;font-variant:normal;font-weight:normal;font-stretch:normal;font-size:65%;line-height:0;font-family:Arial;-inkscape-font-specification:Arial;text-align:start;letter-spacing:-0.510646px;writing-mode:lr-tb;direction:ltr;baseline-shift:sub;text-anchor:start;fill:#e0e0e0;fill-opacity:1;stroke:#00d1b2;stroke-width:0;stroke-linecap:round;stroke-linejoin:round"
       x="48.22031"
       y="-10.715625"
       id="text2"><tspan
         sodipodi:role="line"
         id="tspan2"
         style="font-style:normal;font-variant:normal;font-weight:normal;font-stretch:normal;font-size:65%;font-family:Arial;-inkscape-font-specification:Arial;baseline-shift:sub;stroke-width:0"
         x="48.22031"
         y="-10.715625" /></text></g></svg>
